<?xml version="1.0" encoding="UTF-8" standalone="no"?>
<!DOCTYPE svg PUBLIC "-//W3C//DTD SVG 1.1//EN" "http://www.w3.org/Graphics/SVG/1.1/DTD/svg11.dtd">
<svg width="100%" height="100%" viewBox="0 0 45 45" version="1.1" xmlns="http://www.w3.org/2000/svg" xmlns:xlink="http://www.w3.org/1999/xlink" xml:space="preserve" xmlns:serif="http://www.serif.com/" style="fill-rule:evenodd;clip-rule:evenodd;">
    <g>
        <path d="M22.5,25C22.5,25 27,17.5 25.5,14.5C25.5,14.5 24.5,12 22.5,12C20.5,12 19.5,14.5 19.5,14.5C18,17.5 22.5,25 22.5,25" style="fill:white;stroke:black;stroke-width:1.5px;"/>
        <g transform="matrix(0.697531,0,0,0.846154,6.80556,2.84615)">
            <path d="M22.5,25C22.5,25 27,17.5 25.5,14.5C25.5,14.5 24.5,12 22.5,12C20.5,12 19.5,14.5 19.5,14.5C18,17.5 22.5,25 22.5,25" style="stroke:white;stroke-width:1.5px;"/>
        </g>
        <path d="M12.5,37C18,40.5 27,40.5 32.5,37L32.5,30C32.5,30 41.5,25.5 38.5,19.5C34.5,13 25,16 22.5,23.5L22.5,27L22.5,23.5C20,16 10.5,13 6.5,19.5C3.5,25.5 12.5,30 12.5,30L12.5,37" style="fill:white;stroke:black;stroke-width:1.5px;stroke-linecap:round;stroke-linejoin:round;"/>
        <path d="M12.5,30C18,27 27,27 32.5,30" style="fill:none;stroke:black;stroke-width:1.5px;stroke-linecap:round;stroke-linejoin:round;"/>
        <path d="M12.5,37C18,34 27,34 32.5,37" style="fill:none;stroke:black;stroke-width:1.5px;stroke-linecap:round;stroke-linejoin:round;"/>
    </g>
</svg>
